<svg id="Layer_1" data-name="Layer 1" xmlns="http://www.w3.org/2000/svg" width="35.64" height="36.44" viewBox="0 0 35.64 36.44"><defs><style>.cls-1{fill:#2a2f7d;}.cls-2{fill:#5d469c;}</style></defs><path class="cls-1" d="M17.57,3.38a1.69,1.69,0,1,1,1.69-1.69A1.69,1.69,0,0,1,17.57,3.38Zm0-2.17a.49.49,0,0,0-.48.48.48.48,0,0,0,.48.48.47.47,0,0,0,.48-.48A.48.48,0,0,0,17.57,1.21Z"/><path class="cls-2" d="M21.88,31.82H13.54a1.28,1.28,0,0,1-1.29-1.28A8.2,8.2,0,0,0,9.9,24.88,10.61,10.61,0,0,1,16.35,7a10.5,10.5,0,0,1,8.29,2.63,10.63,10.63,0,0,1,3.54,7.91,10.52,10.52,0,0,1-2.94,7.32,7.78,7.78,0,0,0-2.08,5.43v.24A1.28,1.28,0,0,1,21.88,31.82ZM17.58,8.15a10.28,10.28,0,0,0-1.1.06A9.4,9.4,0,0,0,10.78,24a9.41,9.41,0,0,1,2.68,6.5.08.08,0,0,0,.08.07h8.34a.07.07,0,0,0,.07-.07V30.3A9,9,0,0,1,24.37,24,9.31,9.31,0,0,0,27,17.55a9.41,9.41,0,0,0-3.14-7A9.28,9.28,0,0,0,17.58,8.15Z"/><path class="cls-2" d="M22.22,33.45h-9a.61.61,0,1,1,0-1.21h9a.61.61,0,0,1,0,1.21Z"/><path class="cls-2" d="M22.22,35h-9a.61.61,0,1,1,0-1.21h9a.61.61,0,0,1,0,1.21Z"/><path class="cls-2" d="M21.11,36.44H14.3a.61.61,0,0,1,0-1.21h6.81a.61.61,0,0,1,0,1.21Z"/><path class="cls-2" d="M3.38,25.63a.61.61,0,0,1-.5-.26A.63.63,0,0,1,3,24.52l3.17-2.17a.61.61,0,0,1,.84.16.6.6,0,0,1-.16.84L3.73,25.52A.58.58,0,0,1,3.38,25.63Z"/><path class="cls-2" d="M6.55,11a.6.6,0,0,1-.34-.11L3,8.7a.61.61,0,1,1,.69-1L6.89,9.87A.61.61,0,0,1,6.55,11Z"/><path class="cls-2" d="M.61,17.14a.6.6,0,0,1-.61-.6.61.61,0,0,1,.6-.61l3.84,0a.58.58,0,0,1,.61.61.62.62,0,0,1-.6.61l-3.84,0Z"/><path class="cls-2" d="M32.26,25.63a.53.53,0,0,1-.34-.11l-3.17-2.17a.61.61,0,0,1-.16-.84.62.62,0,0,1,.85-.16l3.16,2.17a.61.61,0,0,1-.34,1.11Z"/><path class="cls-2" d="M29.09,11a.61.61,0,0,1-.55-.36.6.6,0,0,1,.31-.8L32,8.43a.6.6,0,0,1,.8.31.6.6,0,0,1-.31.8l-3.16,1.39A.7.7,0,0,1,29.09,11Z"/><path class="cls-2" d="M35,17.14h0l-3.84,0a.61.61,0,0,1,0-1.22h0l3.84,0a.61.61,0,0,1,0,1.21Z"/><path class="cls-2" d="M11.12,23.41a.63.63,0,0,1-.41-.15,5.08,5.08,0,0,1-.92-1.11.6.6,0,0,1,.19-.83.61.61,0,0,1,.84.19,3.68,3.68,0,0,0,.7.84.61.61,0,0,1,.05.86A.59.59,0,0,1,11.12,23.41Z"/><path class="cls-2" d="M9.75,21.28a.61.61,0,0,1-.57-.4A10,10,0,0,1,9,14.64c1.39-3.79,3.65-4.66,3.75-4.7a.62.62,0,0,1,.78.36.61.61,0,0,1-.36.78s-1.86.78-3,4a8.83,8.83,0,0,0,.17,5.4.62.62,0,0,1-.36.78A.78.78,0,0,1,9.75,21.28Z"/></svg>